<?xml version="1.0" encoding="windows-1252" standalone="no"?>
<svg xmlns="http://www.w3.org/2000/svg" xmlns:xlink="http://www.w3.org/1999/xlink" contentStyleType="text/css" height="1135px" preserveAspectRatio="none" style="width:1670px;height:1135px;background:#FFFFFF;" version="1.1" viewBox="0 0 1670 1135" width="1670px" zoomAndPan="magnify"><defs/><g><!--class Color--><g id="elem_Color"><rect codeLine="1" fill="#F1F1F1" height="113.1875" id="Color" rx="2.5" ry="2.5" style="stroke:#181818;stroke-width:0.5;" width="374" x="973.0374" y="885.5"/><ellipse cx="1136.7874" cy="901.5" fill="#ADD1B2" rx="11" ry="11" style="stroke:#181818;stroke-width:1.0;"/><path d="M1139.1312,897.1719 C1138.1937,896.7344 1137.5999,896.5938 1136.7249,896.5938 C1134.0999,896.5938 1132.0999,898.6719 1132.0999,901.3906 L1132.0999,902.5156 C1132.0999,905.0938 1134.2093,906.9844 1137.0999,906.9844 C1138.3187,906.9844 1139.4749,906.6875 1140.2249,906.1406 C1140.803,905.7344 1141.1312,905.2813 1141.1312,904.8906 C1141.1312,904.4375 1140.7405,904.0469 1140.2718,904.0469 C1140.053,904.0469 1139.8499,904.125 1139.6624,904.3125 C1139.2093,904.7969 1139.2093,904.7969 1139.0218,904.8906 C1138.5999,905.1563 1137.9124,905.2813 1137.1468,905.2813 C1135.0999,905.2813 1133.803,904.1875 1133.803,902.4844 L1133.803,901.3906 C1133.803,899.6094 1135.053,898.2969 1136.7874,898.2969 C1137.3655,898.2969 1137.9749,898.4531 1138.4437,898.7031 C1138.928,898.9844 1139.0999,899.2031 1139.1937,899.6094 C1139.2562,900.0156 1139.2874,900.1406 1139.428,900.2656 C1139.5687,900.4063 1139.803,900.5156 1140.0218,900.5156 C1140.2874,900.5156 1140.553,900.375 1140.7249,900.1563 C1140.8343,900 1140.8655,899.8125 1140.8655,899.3906 L1140.8655,897.9688 C1140.8655,897.5313 1140.8499,897.4063 1140.7562,897.25 C1140.5999,896.9844 1140.3187,896.8438 1140.0218,896.8438 C1139.7249,896.8438 1139.5218,896.9375 1139.303,897.25 L1139.1312,897.1719 Z " fill="#000000"/><text fill="#000000" font-family="sans-serif" font-size="14" lengthAdjust="spacing" textLength="38" x="1157.2874" y="906.3467">Color</text><line style="stroke:#181818;stroke-width:0.5;" x1="974.0374" x2="1346.0374" y1="917.5" y2="917.5"/><text fill="#000000" font-family="sans-serif" font-size="14" lengthAdjust="spacing" textLength="207" x="979.0374" y="934.4951">color_ : std::vector&lt;double&gt;</text><line style="stroke:#181818;stroke-width:0.5;" x1="974.0374" x2="1346.0374" y1="941.7969" y2="941.7969"/><text fill="#000000" font-family="sans-serif" font-size="14" lengthAdjust="spacing" textLength="240" x="979.0374" y="958.792">Color(color:std::vector&lt;double&gt;)</text><text fill="#000000" font-family="sans-serif" font-size="14" lengthAdjust="spacing" textLength="362" x="979.0374" y="975.0889">Color(hue:double, saturation:double, value:double)</text><text fill="#000000" font-family="sans-serif" font-size="14" lengthAdjust="spacing" textLength="220" x="979.0374" y="991.3857">operator[](int index) : double&amp;</text></g><!--class TypesOfRequest--><g id="elem_TypesOfRequest"><rect codeLine="9" fill="#F1F1F1" height="96.8906" id="TypesOfRequest" rx="2.5" ry="2.5" style="stroke:#181818;stroke-width:0.5;" width="151" x="557.5374" y="516.5"/><ellipse cx="572.5374" cy="532.5" fill="#EB937F" rx="11" ry="11" style="stroke:#181818;stroke-width:1.0;"/><path d="M571.3343,533.375 L572.7874,533.375 L572.7874,533.4844 C572.7874,533.8906 572.8186,534.0469 572.8968,534.2031 C573.053,534.4531 573.3343,534.6094 573.6311,534.6094 C573.8811,534.6094 574.1468,534.4688 574.303,534.25 C574.428,534.0938 574.4593,533.9375 574.4593,533.4844 L574.4593,531.5625 C574.4593,531.4063 574.4593,531.3594 574.4436,531.2031 C574.3811,530.7344 574.0686,530.4219 573.6155,530.4219 C573.3655,530.4219 573.0999,530.5625 572.928,530.7813 C572.8186,530.9531 572.7874,531.1094 572.7874,531.5625 L572.7874,531.6875 L571.3343,531.6875 L571.3343,529.2813 L575.3186,529.2813 L575.3186,530.1406 C575.3186,530.5469 575.3499,530.7188 575.428,530.875 C575.5999,531.125 575.8811,531.2813 576.1624,531.2813 C576.428,531.2813 576.6936,531.1406 576.8655,530.9219 C576.9749,530.75 577.0061,530.6094 577.0061,530.1406 L577.0061,527.5938 L569.3811,527.5938 C568.9436,527.5938 568.8186,527.6094 568.6624,527.7031 C568.4124,527.8594 568.2561,528.1563 568.2561,528.4375 C568.2561,528.7188 568.3968,528.9688 568.6155,529.1406 C568.7718,529.25 568.9593,529.2813 569.3811,529.2813 L569.6311,529.2813 L569.6311,535.7969 L569.3811,535.7969 C568.9749,535.7969 568.8186,535.8125 568.6624,535.9219 C568.4124,536.0938 568.2561,536.3594 568.2561,536.6563 C568.2561,536.9219 568.3968,537.1719 568.6155,537.3281 C568.7561,537.4531 568.9905,537.5 569.3811,537.5 L577.3811,537.5 L577.3811,534.9219 C577.3811,534.4844 577.3499,534.3438 577.2718,534.1875 C577.0999,533.9375 576.8186,533.7813 576.5374,533.7813 C576.2718,533.7813 576.0061,533.8906 575.8343,534.1406 C575.7249,534.2969 575.6936,534.4375 575.6936,534.9219 L575.6936,535.7969 L571.3343,535.7969 L571.3343,533.375 Z " fill="#000000"/><text fill="#000000" font-family="sans-serif" font-size="14" lengthAdjust="spacing" textLength="119" x="586.5374" y="537.3467">TypesOfRequest</text><line style="stroke:#181818;stroke-width:0.5;" x1="558.5374" x2="707.5374" y1="548.5" y2="548.5"/><text fill="#000000" font-family="sans-serif" font-size="14" lengthAdjust="spacing" textLength="58" x="563.5374" y="565.4951">System,</text><text fill="#000000" font-family="sans-serif" font-size="14" lengthAdjust="spacing" textLength="41" x="563.5374" y="581.792">None,</text><text fill="#000000" font-family="sans-serif" font-size="14" lengthAdjust="spacing" textLength="51" x="563.5374" y="598.0889">Deliver</text><line style="stroke:#181818;stroke-width:0.5;" x1="558.5374" x2="707.5374" y1="605.3906" y2="605.3906"/></g><!--class States--><g id="elem_States"><rect codeLine="16" fill="#F1F1F1" height="145.7813" id="States" rx="2.5" ry="2.5" style="stroke:#181818;stroke-width:0.5;" width="87" x="1127.5374" y="188.5"/><ellipse cx="1146.1374" cy="204.5" fill="#EB937F" rx="11" ry="11" style="stroke:#181818;stroke-width:1.0;"/><path d="M1144.9343,205.375 L1146.3874,205.375 L1146.3874,205.4844 C1146.3874,205.8906 1146.4187,206.0469 1146.4968,206.2031 C1146.653,206.4531 1146.9343,206.6094 1147.2312,206.6094 C1147.4812,206.6094 1147.7468,206.4688 1147.903,206.25 C1148.028,206.0938 1148.0593,205.9375 1148.0593,205.4844 L1148.0593,203.5625 C1148.0593,203.4063 1148.0593,203.3594 1148.0437,203.2031 C1147.9812,202.7344 1147.6687,202.4219 1147.2155,202.4219 C1146.9655,202.4219 1146.6999,202.5625 1146.528,202.7813 C1146.4187,202.9531 1146.3874,203.1094 1146.3874,203.5625 L1146.3874,203.6875 L1144.9343,203.6875 L1144.9343,201.2813 L1148.9187,201.2813 L1148.9187,202.1406 C1148.9187,202.5469 1148.9499,202.7188 1149.028,202.875 C1149.1999,203.125 1149.4812,203.2813 1149.7624,203.2813 C1150.028,203.2813 1150.2937,203.1406 1150.4655,202.9219 C1150.5749,202.75 1150.6062,202.6094 1150.6062,202.1406 L1150.6062,199.5938 L1142.9812,199.5938 C1142.5437,199.5938 1142.4187,199.6094 1142.2624,199.7031 C1142.0124,199.8594 1141.8562,200.1563 1141.8562,200.4375 C1141.8562,200.7188 1141.9968,200.9688 1142.2155,201.1406 C1142.3718,201.25 1142.5593,201.2813 1142.9812,201.2813 L1143.2312,201.2813 L1143.2312,207.7969 L1142.9812,207.7969 C1142.5749,207.7969 1142.4187,207.8125 1142.2624,207.9219 C1142.0124,208.0938 1141.8562,208.3594 1141.8562,208.6563 C1141.8562,208.9219 1141.9968,209.1719 1142.2155,209.3281 C1142.3562,209.4531 1142.5905,209.5 1142.9812,209.5 L1150.9812,209.5 L1150.9812,206.9219 C1150.9812,206.4844 1150.9499,206.3438 1150.8718,206.1875 C1150.6999,205.9375 1150.4187,205.7813 1150.1374,205.7813 C1149.8718,205.7813 1149.6062,205.8906 1149.4343,206.1406 C1149.3249,206.2969 1149.2937,206.4375 1149.2937,206.9219 L1149.2937,207.7969 L1144.9343,207.7969 L1144.9343,205.375 Z " fill="#000000"/><text fill="#000000" font-family="sans-serif" font-size="14" lengthAdjust="spacing" textLength="47" x="1160.9374" y="209.3467">States</text><line style="stroke:#181818;stroke-width:0.5;" x1="1128.5374" x2="1213.5374" y1="220.5" y2="220.5"/><text fill="#000000" font-family="sans-serif" font-size="14" lengthAdjust="spacing" textLength="62" x="1133.5374" y="237.4951">Running,</text><text fill="#000000" font-family="sans-serif" font-size="14" lengthAdjust="spacing" textLength="75" x="1133.5374" y="253.792">DoDeliver,</text><text fill="#000000" font-family="sans-serif" font-size="14" lengthAdjust="spacing" textLength="42" x="1133.5374" y="270.0889">Move,</text><text fill="#000000" font-family="sans-serif" font-size="14" lengthAdjust="spacing" textLength="54" x="1133.5374" y="286.3857">Rotate,</text><text fill="#000000" font-family="sans-serif" font-size="14" lengthAdjust="spacing" textLength="59" x="1133.5374" y="302.6826">Waiting,</text><text fill="#000000" font-family="sans-serif" font-size="14" lengthAdjust="spacing" textLength="66" x="1133.5374" y="318.9795">Disabling</text><line style="stroke:#181818;stroke-width:0.5;" x1="1128.5374" x2="1213.5374" y1="326.2813" y2="326.2813"/></g><!--class Detector--><g id="elem_Detector"><rect codeLine="26" fill="#F1F1F1" height="194.6719" id="Detector" rx="2.5" ry="2.5" style="stroke:#181818;stroke-width:0.5;" width="635" x="1028.5374" y="467.5"/><ellipse cx="1308.7874" cy="483.5" fill="#ADD1B2" rx="11" ry="11" style="stroke:#181818;stroke-width:1.0;"/><path d="M1311.1312,479.1719 C1310.1937,478.7344 1309.5999,478.5938 1308.7249,478.5938 C1306.0999,478.5938 1304.0999,480.6719 1304.0999,483.3906 L1304.0999,484.5156 C1304.0999,487.0938 1306.2093,488.9844 1309.0999,488.9844 C1310.3187,488.9844 1311.4749,488.6875 1312.2249,488.1406 C1312.803,487.7344 1313.1312,487.2813 1313.1312,486.8906 C1313.1312,486.4375 1312.7405,486.0469 1312.2718,486.0469 C1312.053,486.0469 1311.8499,486.125 1311.6624,486.3125 C1311.2093,486.7969 1311.2093,486.7969 1311.0218,486.8906 C1310.5999,487.1563 1309.9124,487.2813 1309.1468,487.2813 C1307.0999,487.2813 1305.803,486.1875 1305.803,484.4844 L1305.803,483.3906 C1305.803,481.6094 1307.053,480.2969 1308.7874,480.2969 C1309.3655,480.2969 1309.9749,480.4531 1310.4437,480.7031 C1310.928,480.9844 1311.0999,481.2031 1311.1937,481.6094 C1311.2562,482.0156 1311.2874,482.1406 1311.428,482.2656 C1311.5687,482.4063 1311.803,482.5156 1312.0218,482.5156 C1312.2874,482.5156 1312.553,482.375 1312.7249,482.1563 C1312.8343,482 1312.8655,481.8125 1312.8655,481.3906 L1312.8655,479.9688 C1312.8655,479.5313 1312.8499,479.4063 1312.7562,479.25 C1312.5999,478.9844 1312.3187,478.8438 1312.0218,478.8438 C1311.7249,478.8438 1311.5218,478.9375 1311.303,479.25 L1311.1312,479.1719 Z " fill="#000000"/><text fill="#000000" font-family="sans-serif" font-size="14" lengthAdjust="spacing" textLength="66" x="1329.2874" y="488.3467">Detector</text><line style="stroke:#181818;stroke-width:0.5;" x1="1029.5374" x2="1662.5374" y1="499.5" y2="499.5"/><line style="stroke:#181818;stroke-width:0.5;" x1="1029.5374" x2="1662.5374" y1="507.5" y2="507.5"/><text fill="#000000" font-family="sans-serif" font-size="14" lengthAdjust="spacing" textLength="555" x="1034.5374" y="524.4951">findAngle(massCenter1:const cv::Point2i&amp;, massCenter2 : const cv::Point2i&amp;,</text><text fill="#000000" font-family="sans-serif" font-size="14" lengthAdjust="spacing" textLength="291" x="1034.5374" y="540.792">massCenter3 : const cv::Point2i&amp;) : float</text><text fill="#000000" font-family="sans-serif" font-size="14" lengthAdjust="spacing" textLength="453" x="1034.5374" y="557.0889">findDistanceToDestination(averageCenter : const cv::Point2i&amp;,</text><text fill="#000000" font-family="sans-serif" font-size="14" lengthAdjust="spacing" textLength="264" x="1034.5374" y="573.3857">destination : const cv::Point2i&amp;) : int</text><text fill="#000000" font-family="sans-serif" font-size="14" lengthAdjust="spacing" textLength="520" x="1034.5374" y="589.6826">TakeThresholdOfBlob(frameHSV : const cv::Mat&amp;, color : Color) : cv::Mat</text><text fill="#000000" font-family="sans-serif" font-size="14" lengthAdjust="spacing" textLength="483" x="1034.5374" y="605.9795">detectBlob(frame : cv::Mat&amp;, threshold : const cv::Mat&amp;) : cv::Rect</text><text fill="#000000" font-family="sans-serif" font-size="14" lengthAdjust="spacing" textLength="479" x="1034.5374" y="622.2764">SteppedDetection(frame : cv::Mat&amp;, colorHSV : Color) : cv::Point2i</text><text fill="#000000" font-family="sans-serif" font-size="14" lengthAdjust="spacing" textLength="407" x="1034.5374" y="638.5732">GetMassCenter(rectangle : const cv::Rect&amp;) : cv::Point2i</text><text fill="#000000" font-family="sans-serif" font-size="14" lengthAdjust="spacing" textLength="623" x="1034.5374" y="654.8701">GetMassCenter(center1 : const cv::Point2i&amp;, center2 : const cv::Point2i &amp;) : cv::Point2i</text></g><!--class AlphaBot--><g id="elem_AlphaBot"><rect codeLine="39" fill="#F1F1F1" height="80.5938" id="AlphaBot" rx="2.5" ry="2.5" style="stroke:#181818;stroke-width:0.5;" width="136" x="765.0374" y="7"/><ellipse cx="796.6874" cy="23" fill="#F1F1F1" rx="11" ry="11" style="stroke:#181818;stroke-width:1.0;"/><path d="M800.4686,18.9688 C800.4686,18.5313 800.453,18.3906 800.3593,18.2344 C800.2186,18 799.9374,17.8438 799.6405,17.8438 C799.2968,17.8438 799.1561,17.9844 798.9843,18.4063 C798.3905,18.0313 797.6405,17.8438 796.7655,17.8438 C794.6561,17.8438 793.078,19.1406 793.078,20.8594 C793.078,21.8281 793.6093,22.7344 794.4686,23.2188 C795.0155,23.5313 795.5624,23.7031 796.6718,23.8906 C797.828,24.0938 798.0936,24.1563 798.453,24.3438 C798.828,24.5469 799.0624,24.8906 799.0624,25.25 C799.0624,25.9844 798.078,26.5313 796.828,26.5313 C795.703,26.5313 794.6249,26.0469 794.453,25.4375 C794.328,24.9688 794.328,24.9688 794.203,24.8594 C794.0468,24.7031 793.828,24.6094 793.5936,24.6094 C793.3124,24.6094 793.0624,24.7344 792.8905,24.9531 C792.7811,25.125 792.7343,25.3125 792.7343,25.7344 L792.7343,26.8594 C792.7343,27.625 793.0155,27.9844 793.6093,27.9844 C793.8749,27.9844 793.9999,27.9219 794.2811,27.5781 C795.1249,28.0156 796.0155,28.2344 796.9374,28.2344 C799.2655,28.2344 800.828,27.0469 800.828,25.2813 C800.828,24.3906 800.5155,23.7031 799.828,23.1563 C799.2968,22.7344 798.6561,22.4844 797.1718,22.2188 C795.9061,21.9844 795.8124,21.9531 795.4843,21.7813 C795.1093,21.5938 794.8436,21.2031 794.8436,20.8438 C794.8436,20.1094 795.703,19.5469 796.7655,19.5469 C797.828,19.5469 798.6405,20.0156 798.7968,20.6875 C798.9061,21.2344 798.9061,21.2344 799.0311,21.375 C799.1718,21.5 799.4061,21.6094 799.6405,21.6094 C799.9061,21.6094 800.1561,21.4688 800.328,21.25 C800.4374,21.0781 800.4686,20.9375 800.4686,20.4688 L800.4686,18.9688 Z " fill="#000000"/><text fill="#000000" font-family="sans-serif" font-size="14" lengthAdjust="spacing" textLength="67" x="814.3874" y="27.8467">AlphaBot</text><line style="stroke:#181818;stroke-width:0.5;" x1="766.0374" x2="900.0374" y1="39" y2="39"/><text fill="#000000" font-family="sans-serif" font-size="14" lengthAdjust="spacing" textLength="124" x="771.0374" y="55.9951">head : cv::Point2i</text><text fill="#000000" font-family="sans-serif" font-size="14" lengthAdjust="spacing" textLength="112" x="771.0374" y="72.292">tail : cv::Point2i</text><line style="stroke:#181818;stroke-width:0.5;" x1="766.0374" x2="900.0374" y1="79.5938" y2="79.5938"/></g><!--class Request--><g id="elem_Request"><rect codeLine="45" fill="#F1F1F1" height="259.8594" id="Request" rx="2.5" ry="2.5" style="stroke:#181818;stroke-width:0.5;" width="427" x="95.5377" y="435"/><ellipse cx="275.2877" cy="451" fill="#ADD1B2" rx="11" ry="11" style="stroke:#181818;stroke-width:1.0;"/><path d="M277.6315,446.6719 C276.694,446.2344 276.1002,446.0938 275.2252,446.0938 C272.6002,446.0938 270.6002,448.1719 270.6002,450.8906 L270.6002,452.0156 C270.6002,454.5938 272.7096,456.4844 275.6002,456.4844 C276.819,456.4844 277.9752,456.1875 278.7252,455.6406 C279.3033,455.2344 279.6315,454.7813 279.6315,454.3906 C279.6315,453.9375 279.2408,453.5469 278.7721,453.5469 C278.5533,453.5469 278.3502,453.625 278.1627,453.8125 C277.7096,454.2969 277.7096,454.2969 277.5221,454.3906 C277.1002,454.6563 276.4127,454.7813 275.6471,454.7813 C273.6002,454.7813 272.3033,453.6875 272.3033,451.9844 L272.3033,450.8906 C272.3033,449.1094 273.5533,447.7969 275.2877,447.7969 C275.8658,447.7969 276.4752,447.9531 276.944,448.2031 C277.4283,448.4844 277.6002,448.7031 277.694,449.1094 C277.7565,449.5156 277.7877,449.6406 277.9283,449.7656 C278.069,449.9063 278.3033,450.0156 278.5221,450.0156 C278.7877,450.0156 279.0533,449.875 279.2252,449.6563 C279.3346,449.5 279.3658,449.3125 279.3658,448.8906 L279.3658,447.4688 C279.3658,447.0313 279.3502,446.9063 279.2565,446.75 C279.1002,446.4844 278.819,446.3438 278.5221,446.3438 C278.2252,446.3438 278.0221,446.4375 277.8033,446.75 L277.6315,446.6719 Z " fill="#000000"/><text fill="#000000" font-family="sans-serif" font-size="14" lengthAdjust="spacing" textLength="59" x="295.7877" y="455.8467">Request</text><line style="stroke:#181818;stroke-width:0.5;" x1="96.5377" x2="521.5377" y1="467" y2="467"/><text fill="#000000" font-family="sans-serif" font-size="14" lengthAdjust="spacing" textLength="178" x="101.5377" y="483.9951">destination_ : cv::Point2i</text><text fill="#000000" font-family="sans-serif" font-size="14" lengthAdjust="spacing" textLength="173" x="101.5377" y="500.292">type_ : TypesOfRequest</text><text fill="#000000" font-family="sans-serif" font-size="14" lengthAdjust="spacing" textLength="117" x="101.5377" y="516.5889">colorPuf_ : Color</text><line style="stroke:#181818;stroke-width:0.5;" x1="96.5377" x2="521.5377" y1="523.8906" y2="523.8906"/><text fill="#000000" font-family="sans-serif" font-size="14" lengthAdjust="spacing" textLength="69" x="101.5377" y="540.8857">Request()</text><text fill="#000000" font-family="sans-serif" font-size="14" lengthAdjust="spacing" textLength="353" x="101.5377" y="557.1826">Request(colorPuf : Color, type : TypesOfRequest)</text><text fill="#000000" font-family="sans-serif" font-size="14" lengthAdjust="spacing" textLength="275" x="101.5377" y="573.4795">operator=(req : Request&amp;) : Request&amp;</text><text fill="#000000" font-family="sans-serif" font-size="14" lengthAdjust="spacing" textLength="415" x="101.5377" y="589.7764">SetColor(hue : double, saturation :  double, value : double)</text><text fill="#000000" font-family="sans-serif" font-size="14" lengthAdjust="spacing" textLength="251" x="101.5377" y="606.0732">SetDestination(point : cv::Point2i )</text><text fill="#000000" font-family="sans-serif" font-size="14" lengthAdjust="spacing" textLength="160" x="101.5377" y="622.3701">SetColor(color : Color)</text><text fill="#000000" font-family="sans-serif" font-size="14" lengthAdjust="spacing" textLength="237" x="101.5377" y="638.667">SetType(type : TypesOfRequest)</text><text fill="#000000" font-family="sans-serif" font-size="14" lengthAdjust="spacing" textLength="126" x="101.5377" y="654.9639">GetColor() : Color</text><text fill="#000000" font-family="sans-serif" font-size="14" lengthAdjust="spacing" textLength="221" x="101.5377" y="671.2607">GetDestination() : cv::Point2i&amp;</text><text fill="#000000" font-family="sans-serif" font-size="14" lengthAdjust="spacing" textLength="205" x="101.5377" y="687.5576">GetType() : TypesOfRequest</text></g><!--class Controller--><g id="elem_Controller"><rect codeLine="62" fill="#F1F1F1" height="227.2656" id="Controller" rx="2.5" ry="2.5" style="stroke:#181818;stroke-width:0.5;" width="518" x="574.0374" y="148"/><ellipse cx="792.2874" cy="164" fill="#ADD1B2" rx="11" ry="11" style="stroke:#181818;stroke-width:1.0;"/><path d="M794.6311,159.6719 C793.6936,159.2344 793.0999,159.0938 792.2249,159.0938 C789.5999,159.0938 787.5999,161.1719 787.5999,163.8906 L787.5999,165.0156 C787.5999,167.5938 789.7093,169.4844 792.5999,169.4844 C793.8186,169.4844 794.9749,169.1875 795.7249,168.6406 C796.303,168.2344 796.6311,167.7813 796.6311,167.3906 C796.6311,166.9375 796.2405,166.5469 795.7718,166.5469 C795.553,166.5469 795.3499,166.625 795.1624,166.8125 C794.7093,167.2969 794.7093,167.2969 794.5218,167.3906 C794.0999,167.6563 793.4124,167.7813 792.6468,167.7813 C790.5999,167.7813 789.303,166.6875 789.303,164.9844 L789.303,163.8906 C789.303,162.1094 790.553,160.7969 792.2874,160.7969 C792.8655,160.7969 793.4749,160.9531 793.9436,161.2031 C794.428,161.4844 794.5999,161.7031 794.6936,162.1094 C794.7561,162.5156 794.7874,162.6406 794.928,162.7656 C795.0686,162.9063 795.303,163.0156 795.5218,163.0156 C795.7874,163.0156 796.053,162.875 796.2249,162.6563 C796.3343,162.5 796.3655,162.3125 796.3655,161.8906 L796.3655,160.4688 C796.3655,160.0313 796.3499,159.9063 796.2561,159.75 C796.0999,159.4844 795.8186,159.3438 795.5218,159.3438 C795.2249,159.3438 795.0218,159.4375 794.803,159.75 L794.6311,159.6719 Z " fill="#000000"/><text fill="#000000" font-family="sans-serif" font-size="14" lengthAdjust="spacing" textLength="73" x="812.7874" y="168.8467">Controller</text><line style="stroke:#181818;stroke-width:0.5;" x1="575.0374" x2="1091.0374" y1="180" y2="180"/><text fill="#000000" font-family="sans-serif" font-size="14" lengthAdjust="spacing" textLength="144" x="580.0374" y="196.9951">tailColorHsv_ : Color</text><text fill="#000000" font-family="sans-serif" font-size="14" lengthAdjust="spacing" textLength="156" x="580.0374" y="213.292">headColorHsv_ : Color</text><text fill="#000000" font-family="sans-serif" font-size="14" lengthAdjust="spacing" textLength="105" x="580.0374" y="229.5889">state_ : States</text><text fill="#000000" font-family="sans-serif" font-size="14" lengthAdjust="spacing" textLength="218" x="580.0374" y="245.8857">mosq_ : shared_ptr&lt;myMosq&gt;</text><text fill="#000000" font-family="sans-serif" font-size="14" lengthAdjust="spacing" textLength="113" x="580.0374" y="262.1826">bot_ : AlphaBot</text><line style="stroke:#181818;stroke-width:0.5;" x1="575.0374" x2="1091.0374" y1="269.4844" y2="269.4844"/><text fill="#000000" font-family="sans-serif" font-size="14" lengthAdjust="spacing" textLength="506" x="580.0374" y="286.4795">MakeRequest(req : Request&amp;, colorPuf : Color, type : TypesOfRequest)</text><text fill="#000000" font-family="sans-serif" font-size="14" lengthAdjust="spacing" textLength="217" x="580.0374" y="302.7764">FinishRequest(req : Request&amp;)</text><text fill="#000000" font-family="sans-serif" font-size="14" lengthAdjust="spacing" textLength="142" x="580.0374" y="319.0732">Move(distance : int)</text><text fill="#000000" font-family="sans-serif" font-size="14" lengthAdjust="spacing" textLength="146" x="580.0374" y="335.3701">Rotate(angle : float)</text><text fill="#000000" font-family="sans-serif" font-size="14" lengthAdjust="spacing" textLength="72" x="580.0374" y="351.667">GoHome()</text><text fill="#000000" font-family="sans-serif" font-size="14" lengthAdjust="spacing" textLength="298" x="580.0374" y="367.9639">FiniteAutomate(cap : cv::VideoCapture&amp;)</text></g><!--class MqttMessage--><g id="elem_MqttMessage"><rect codeLine="77" fill="#F1F1F1" height="80.5938" id="MqttMessage" rx="2.5" ry="2.5" style="stroke:#181818;stroke-width:0.5;" width="178" x="744.0374" y="524.5"/><ellipse cx="781.5374" cy="540.5" fill="#F1F1F1" rx="11" ry="11" style="stroke:#181818;stroke-width:1.0;"/><path d="M785.3186,536.4688 C785.3186,536.0313 785.303,535.8906 785.2093,535.7344 C785.0686,535.5 784.7874,535.3438 784.4905,535.3438 C784.1468,535.3438 784.0061,535.4844 783.8343,535.9063 C783.2405,535.5313 782.4905,535.3438 781.6155,535.3438 C779.5061,535.3438 777.928,536.6406 777.928,538.3594 C777.928,539.3281 778.4593,540.2344 779.3186,540.7188 C779.8655,541.0313 780.4124,541.2031 781.5218,541.3906 C782.678,541.5938 782.9436,541.6563 783.303,541.8438 C783.678,542.0469 783.9124,542.3906 783.9124,542.75 C783.9124,543.4844 782.928,544.0313 781.678,544.0313 C780.553,544.0313 779.4749,543.5469 779.303,542.9375 C779.178,542.4688 779.178,542.4688 779.053,542.3594 C778.8968,542.2031 778.678,542.1094 778.4436,542.1094 C778.1624,542.1094 777.9124,542.2344 777.7405,542.4531 C777.6311,542.625 777.5843,542.8125 777.5843,543.2344 L777.5843,544.3594 C777.5843,545.125 777.8655,545.4844 778.4593,545.4844 C778.7249,545.4844 778.8499,545.4219 779.1311,545.0781 C779.9749,545.5156 780.8655,545.7344 781.7874,545.7344 C784.1155,545.7344 785.678,544.5469 785.678,542.7813 C785.678,541.8906 785.3655,541.2031 784.678,540.6563 C784.1468,540.2344 783.5061,539.9844 782.0218,539.7188 C780.7561,539.4844 780.6624,539.4531 780.3343,539.2813 C779.9593,539.0938 779.6936,538.7031 779.6936,538.3438 C779.6936,537.6094 780.553,537.0469 781.6155,537.0469 C782.678,537.0469 783.4905,537.5156 783.6468,538.1875 C783.7561,538.7344 783.7561,538.7344 783.8811,538.875 C784.0218,539 784.2561,539.1094 784.4905,539.1094 C784.7561,539.1094 785.0061,538.9688 785.178,538.75 C785.2874,538.5781 785.3186,538.4375 785.3186,537.9688 L785.3186,536.4688 Z " fill="#000000"/><text fill="#000000" font-family="sans-serif" font-size="14" lengthAdjust="spacing" textLength="96" x="800.5374" y="545.3467">MqttMessage</text><line style="stroke:#181818;stroke-width:0.5;" x1="745.0374" x2="921.0374" y1="556.5" y2="556.5"/><text fill="#000000" font-family="sans-serif" font-size="14" lengthAdjust="spacing" textLength="166" x="750.0374" y="573.4951">command : const char*</text><text fill="#000000" font-family="sans-serif" font-size="14" lengthAdjust="spacing" textLength="120" x="750.0374" y="589.792">seconds : double</text><line style="stroke:#181818;stroke-width:0.5;" x1="745.0374" x2="921.0374" y1="597.0938" y2="597.0938"/></g><!--class mosquittopp--><g id="elem_mosquittopp"><rect codeLine="83" fill="#F1F1F1" height="48" id="mosquittopp" rx="2.5" ry="2.5" style="stroke:#181818;stroke-width:0.5;" width="126" x="60.0377" y="918"/><ellipse cx="75.0377" cy="934" fill="#ADD1B2" rx="11" ry="11" style="stroke:#181818;stroke-width:1.0;"/><path d="M77.3815,929.6719 C76.444,929.2344 75.8502,929.0938 74.9752,929.0938 C72.3502,929.0938 70.3502,931.1719 70.3502,933.8906 L70.3502,935.0156 C70.3502,937.5938 72.4596,939.4844 75.3502,939.4844 C76.569,939.4844 77.7252,939.1875 78.4752,938.6406 C79.0533,938.2344 79.3815,937.7813 79.3815,937.3906 C79.3815,936.9375 78.9908,936.5469 78.5221,936.5469 C78.3033,936.5469 78.1002,936.625 77.9127,936.8125 C77.4596,937.2969 77.4596,937.2969 77.2721,937.3906 C76.8502,937.6563 76.1627,937.7813 75.3971,937.7813 C73.3502,937.7813 72.0533,936.6875 72.0533,934.9844 L72.0533,933.8906 C72.0533,932.1094 73.3033,930.7969 75.0377,930.7969 C75.6158,930.7969 76.2252,930.9531 76.694,931.2031 C77.1783,931.4844 77.3502,931.7031 77.444,932.1094 C77.5065,932.5156 77.5377,932.6406 77.6783,932.7656 C77.819,932.9063 78.0533,933.0156 78.2721,933.0156 C78.5377,933.0156 78.8033,932.875 78.9752,932.6563 C79.0846,932.5 79.1158,932.3125 79.1158,931.8906 L79.1158,930.4688 C79.1158,930.0313 79.1002,929.9063 79.0065,929.75 C78.8502,929.4844 78.569,929.3438 78.2721,929.3438 C77.9752,929.3438 77.7721,929.4375 77.5533,929.75 L77.3815,929.6719 Z " fill="#000000"/><text fill="#000000" font-family="sans-serif" font-size="14" lengthAdjust="spacing" textLength="94" x="89.0377" y="938.8467">mosquittopp</text><line style="stroke:#181818;stroke-width:0.5;" x1="61.0377" x2="185.0377" y1="950" y2="950"/><line style="stroke:#181818;stroke-width:0.5;" x1="61.0377" x2="185.0377" y1="958" y2="958"/></g><!--class myMosq--><g id="elem_myMosq"><rect codeLine="84" fill="#F1F1F1" height="373.9375" id="myMosq" rx="2.5" ry="2.5" style="stroke:#181818;stroke-width:0.5;" width="482" x="221.0374" y="755"/><ellipse cx="428.2874" cy="771" fill="#ADD1B2" rx="11" ry="11" style="stroke:#181818;stroke-width:1.0;"/><path d="M430.6312,766.6719 C429.6937,766.2344 429.0999,766.0938 428.2249,766.0938 C425.5999,766.0938 423.5999,768.1719 423.5999,770.8906 L423.5999,772.0156 C423.5999,774.5938 425.7093,776.4844 428.5999,776.4844 C429.8187,776.4844 430.9749,776.1875 431.7249,775.6406 C432.303,775.2344 432.6312,774.7813 432.6312,774.3906 C432.6312,773.9375 432.2405,773.5469 431.7718,773.5469 C431.553,773.5469 431.3499,773.625 431.1624,773.8125 C430.7093,774.2969 430.7093,774.2969 430.5218,774.3906 C430.0999,774.6563 429.4124,774.7813 428.6468,774.7813 C426.5999,774.7813 425.303,773.6875 425.303,771.9844 L425.303,770.8906 C425.303,769.1094 426.553,767.7969 428.2874,767.7969 C428.8655,767.7969 429.4749,767.9531 429.9437,768.2031 C430.428,768.4844 430.5999,768.7031 430.6937,769.1094 C430.7562,769.5156 430.7874,769.6406 430.928,769.7656 C431.0687,769.9063 431.303,770.0156 431.5218,770.0156 C431.7874,770.0156 432.053,769.875 432.2249,769.6563 C432.3343,769.5 432.3655,769.3125 432.3655,768.8906 L432.3655,767.4688 C432.3655,767.0313 432.3499,766.9063 432.2562,766.75 C432.0999,766.4844 431.8187,766.3438 431.5218,766.3438 C431.2249,766.3438 431.0218,766.4375 430.803,766.75 L430.6312,766.6719 Z " fill="#000000"/><text fill="#000000" font-family="sans-serif" font-size="14" lengthAdjust="spacing" textLength="59" x="448.7874" y="775.8467">myMosq</text><line style="stroke:#181818;stroke-width:0.5;" x1="222.0374" x2="702.0374" y1="787" y2="787"/><text fill="#000000" font-family="sans-serif" font-size="14" lengthAdjust="spacing" textLength="200" x="227.0374" y="803.9951">MQTT_SERVER : const char*</text><text fill="#000000" font-family="sans-serif" font-size="14" lengthAdjust="spacing" textLength="221" x="227.0374" y="820.292">MQTT_SUB_TOPIC : const char*</text><text fill="#000000" font-family="sans-serif" font-size="14" lengthAdjust="spacing" textLength="221" x="227.0374" y="836.5889">MQTT_PUB_TOPIC : const char*</text><text fill="#000000" font-family="sans-serif" font-size="14" lengthAdjust="spacing" textLength="118" x="227.0374" y="852.8857">KEEP_ALIVE : int</text><text fill="#000000" font-family="sans-serif" font-size="14" lengthAdjust="spacing" textLength="120" x="227.0374" y="869.1826">MQTT_PORT : int</text><text fill="#000000" font-family="sans-serif" font-size="14" lengthAdjust="spacing" textLength="266" x="227.0374" y="885.4795">colorRequest_ : std::vector&lt;double&gt;</text><text fill="#000000" font-family="sans-serif" font-size="14" lengthAdjust="spacing" textLength="142" x="227.0374" y="901.7764">isConnected_ : bool</text><text fill="#000000" font-family="sans-serif" font-size="14" lengthAdjust="spacing" textLength="143" x="227.0374" y="918.0732">isSubscribed_ : bool</text><text fill="#000000" font-family="sans-serif" font-size="14" lengthAdjust="spacing" textLength="121" x="227.0374" y="934.3701">isRunning_ : bool</text><text fill="#000000" font-family="sans-serif" font-size="14" lengthAdjust="spacing" textLength="120" x="227.0374" y="950.667">inProcess_ : bool</text><line style="stroke:#181818;stroke-width:0.5;" x1="222.0374" x2="702.0374" y1="957.9688" y2="957.9688"/><text fill="#000000" font-family="sans-serif" font-size="14" lengthAdjust="spacing" textLength="132" x="227.0374" y="974.9639">on_connect(int rc)</text><text fill="#000000" font-family="sans-serif" font-size="14" lengthAdjust="spacing" textLength="459" x="227.0374" y="991.2607">on_subscribe(mid : int, qos_count : int, granted_qos : const int*)</text><text fill="#000000" font-family="sans-serif" font-size="14" lengthAdjust="spacing" textLength="383" x="227.0374" y="1007.5576">on_message(msg : const struct mosquitto_message*)</text><text fill="#000000" font-family="sans-serif" font-size="14" lengthAdjust="spacing" textLength="454" x="227.0374" y="1023.8545">myMosq(mqttServer : const char*, mqttSubTopic : const char*,</text><text fill="#000000" font-family="sans-serif" font-size="14" lengthAdjust="spacing" textLength="470" x="227.0374" y="1040.1514">mqttPubTopic : const char*, id : const char*, clean_session : bool)</text><text fill="#000000" font-family="sans-serif" font-size="14" lengthAdjust="spacing" textLength="80" x="227.0374" y="1056.4482">~myMosq()</text><text fill="#000000" font-family="sans-serif" font-size="14" lengthAdjust="spacing" textLength="81" x="227.0374" y="1072.7451">Subscribe()</text><text fill="#000000" font-family="sans-serif" font-size="14" lengthAdjust="spacing" textLength="238" x="227.0374" y="1089.042">SendToServer(data : const char*)</text><text fill="#000000" font-family="sans-serif" font-size="14" lengthAdjust="spacing" textLength="334" x="227.0374" y="1105.3389">Publish(message : const MqttMessage*) : void*</text><text fill="#000000" font-family="sans-serif" font-size="14" lengthAdjust="spacing" textLength="262" x="227.0374" y="1121.6357">GetMessage() : std::vector&lt;double&gt;</text></g><!--reverse link MqttMessage to myMosq--><g id="link_MqttMessage_myMosq"><path codeLine="108" d="M793.8434,616.256 C774.1944,640.657 749.6124,670.025 726.0374,695 C707.3314,714.817 687.3604,735.003 667.0934,754.859 " fill="none" id="MqttMessage-backto-myMosq" style="stroke:#181818;stroke-width:1.0;"/><polygon fill="none" points="802.2234,605.78,795.3521,607.9674,794.7283,615.1515,801.5997,612.9641,802.2234,605.78" style="stroke:#181818;stroke-width:1.0;"/></g><!--reverse link mosquittopp to myMosq--><g id="link_mosquittopp_myMosq"><path codeLine="109" d="M206.3534,942 C211.2384,942 216.1244,942 221.0094,942 " fill="none" id="mosquittopp-backto-myMosq" style="stroke:#181818;stroke-width:1.0;"/><polygon fill="none" points="206.2694,949,186.2694,942,206.2694,935,206.2694,949" style="stroke:#181818;stroke-width:1.0;"/></g><!--link Detector to Color--><g id="link_Detector_Color"><path codeLine="110" d="M1298.1374,662.572 C1263.9374,731.521 1219.0074,822.116 1189.8274,880.94 " fill="none" id="Detector-to-Color" style="stroke:#181818;stroke-width:1.0;"/><polygon fill="#181818" points="1187.5774,885.472,1195.164,879.1916,1189.802,880.9942,1187.9994,875.6322,1187.5774,885.472" style="stroke:#181818;stroke-width:1.0;"/></g><!--link Request to TypesOfRequest--><g id="link_Request_TypesOfRequest"><path codeLine="111" d="M522.6124,565 C529.7114,565 536.8104,565 543.9094,565 " fill="none" id="Request-to-TypesOfRequest" style="stroke:#181818;stroke-width:1.0;"/><polygon fill="#181818" points="557.1204,565,551.1204,561,545.1204,565,551.1204,569,557.1204,565" style="stroke:#181818;stroke-width:1.0;"/></g><!--reverse link AlphaBot to Controller--><g id="link_AlphaBot_Controller"><path codeLine="112" d="M833.0374,101.46 C833.0374,115.72 833.0374,131.698 833.0374,147.883 " fill="none" id="AlphaBot-backto-Controller" style="stroke:#181818;stroke-width:1.0;"/><polygon fill="none" points="833.0374,88.38,829.0374,94.38,833.0374,100.38,837.0374,94.38,833.0374,88.38" style="stroke:#181818;stroke-width:1.0;"/></g><!--link Controller to Request--><g id="link_Controller_Request"><path codeLine="113" d="M637.1744,375.196 C601.2794,395.849 563.6124,417.522 527.1164,438.522 " fill="none" id="Controller-to-Request" style="stroke:#181818;stroke-width:1.0;"/><polygon fill="#181818" points="522.6714,441.079,532.4672,440.0579,527.0053,438.5855,528.4777,433.1237,522.6714,441.079" style="stroke:#181818;stroke-width:1.0;"/></g><!--link Controller to Detector--><g id="link_Controller_Detector"><path codeLine="114" d="M1024.7894,375.196 C1074.7874,404.583 1128.3074,436.035 1177.0374,464.673 " fill="none" id="Controller-to-Detector" style="stroke:#181818;stroke-width:1.0;"/><polygon fill="#181818" points="1181.4274,467.258,1175.6888,459.2537,1177.1148,464.7279,1171.6406,466.1539,1181.4274,467.258" style="stroke:#181818;stroke-width:1.0;"/></g><!--link Controller to myMosq--><g id="link_Controller_myMosq"><path codeLine="115" d="M573.9554,287.474 C380.6684,312.09 139.8024,357.533 78.0377,435 C6,525.353 16.4959,597.196 78.0377,695 C110.8571,747.158 150.0294,723.573 203.0374,755 C207.5024,757.647 211.9864,760.349 216.4844,763.099 " fill="none" id="Controller-to-myMosq" style="stroke:#181818;stroke-width:1.0;"/><polygon fill="#181818" points="220.9854,765.865,215.4128,757.7443,216.7258,763.2467,211.2234,764.5597,220.9854,765.865" style="stroke:#181818;stroke-width:1.0;"/></g><!--link Controller to Color--><g id="link_Controller_Color"><path codeLine="116" d="M908.4104,375.121 C919.6364,394.597 930.3394,415.018 939.0374,435 C986.8964,544.939 963.5314,584.908 1011.0374,695 C1039.9374,761.976 1084.3774,832.623 1117.2074,880.939 " fill="none" id="Controller-to-Color" style="stroke:#181818;stroke-width:1.0;"/><polygon fill="#181818" points="1120.1474,885.252,1118.381,875.5628,1117.3302,881.1212,1111.7718,880.0704,1120.1474,885.252" style="stroke:#181818;stroke-width:1.0;"/></g><!--link Controller to MqttMessage--><g id="link_Controller_MqttMessage"><path codeLine="117" d="M833.0374,375.196 C833.0374,425.094 833.0374,480.944 833.0374,518.869 " fill="none" id="Controller-to-MqttMessage" style="stroke:#181818;stroke-width:1.0;"/><polygon fill="#181818" points="833.0374,524.332,837.0374,515.332,833.0374,519.332,829.0374,515.332,833.0374,524.332" style="stroke:#181818;stroke-width:1.0;"/></g><!--link Controller to States--><g id="link_Controller_States"><path codeLine="118" d="M1092.1474,261.5 C1099.4674,261.5 1106.7874,261.5 1114.1074,261.5 " fill="none" id="Controller-to-States" style="stroke:#181818;stroke-width:1.0;"/><polygon fill="#181818" points="1127.2774,261.5,1121.2774,257.5,1115.2774,261.5,1121.2774,265.5,1127.2774,261.5" style="stroke:#181818;stroke-width:1.0;"/></g><!--SRC=[ZLP9R-is4BxpL_0KI8PzwElDI0CaZlloqBfnRJKzj8L1IsERg4Gg8cKqwFBRErors2vwCZtBnvbl5YelcL9q8KlPa3z9RdvtT4wLBkRpC-HQDlU5RFSbF11hb5YJ-HLzwWrEBSoTQ4eLqst3D9SYYiwiZ0OfaJMWNZQ__9PmeIaN1VoHulrEVqV-9WH4Mz7iemRrUjZ0UmjAOwJR3wMXcbBoWnI8IfwXv6TeeiDMCmqA3JUj45mSf-HPUfifMSapJCb66fif-PbnxIouOliIZmObjyGyWxP98j01WtiKnnAI2ZKB41gQh-Qv54hJ_3oVhoLcy8dVJMcd_uIfNB4WdSNNLoqC1OTICcrlnRWq4pbac872K2sX2SDKs14SpFLxA2awXviNuObax7V8JWseaooBryDJAVV9eM4Ll6pV1euhfX7NDW7ARSKDXbUP2mrXdN-dGpSTRhY031WRT2PR3NKDXUFUf7g9P0DmiGrYy7cHpw1NaUEaGHncIZUurznrzz-EkQlo3NRpspMc5y3OKaetRQxfOrcVs9CqNNm2LepiDEFbfQlhHj_-53rxXTsD4N1MZ6muCzGDzxezx09fnAkID9w2JJ31cY7A1LWtkDyWkU-ezmgRTZYJBUYu4-9GzxS22kbWCKIhb1hlVh_N9hrXgZJjhXYsf96Ra9CRuNyERcbmeKRMlszKm3kZjv3f5MvZYHPIw4QM9PYLOMffmL_KkMFT5FrIgimoCd_zvggaUhUR-CGQA7QrRkwhZnKA7yXUQgE9VRJ2uGq575R33yh_AUYtN71rkWwJsesP57uFkPsH-WMQXCco2mkfbI-oGfOieeR7LilAcEMizeo-yGBaWjNO1O3OtMIithLUWLAurknZL5LCz7O5CZ4X2l1VeMAZTDGRnbgkjQph8B648TJgnopRRPURj-Lc1ESqFptjijVrbyKrvVg6yhlbShrx_FxBszBlK6VzkidyVqkzf_3McyeLDen06POOJVPIbYZRjdkLDtm_4Fg7h9E8TIDpP2jAS1Na3iq-fasU6f4AO4d52nVQbBvBXRQj7IWhE3PCc21G4VD4nSH2LAucIQMEKUbB5aaFHkZXQ4yghEOMcdF_TJBCuGDfDEq-apNFHpfYTElhEigBiIGlWM6AUBNR9eQ7bFpwZmy1zq3Ctkm4KMJIXPGKJBCXMahmtXA78F6fH7MlBoTc-i-I5nFxL7XYqXlbnTxi-L8vcuMUx3KhlVyhYiFt1ftD7ePBciucuw-Wi00iRc_nT4SB4yn7ulXfqvS_X416nYwKaR0_hdtLnE-mVm40]--></g><style xmlns="" type="text/css" id="igtranslator-color"/></svg>