<?xml version="1.0" encoding="windows-1252" standalone="no"?>
<svg xmlns="http://www.w3.org/2000/svg" xmlns:xlink="http://www.w3.org/1999/xlink" contentStyleType="text/css" height="175px" preserveAspectRatio="none" style="width:526px;height:175px;background:#FFFFFF;" version="1.1" viewBox="0 0 526 175" width="526px" zoomAndPan="magnify"><defs/><g><g id="elem_Start"><ellipse cx="43.7231" cy="64.2465" fill="#F1F1F1" rx="37.7231" ry="14.5485" style="stroke:#181818;stroke-width:0.5;"/><text fill="#000000" font-family="sans-serif" font-size="14" lengthAdjust="spacing" textLength="37" x="23.6116" y="67.6292">Start</text></g><g id="elem_Running"><ellipse cx="169.3472" cy="64.4195" fill="#F1F1F1" rx="53.3472" ry="14.7215" style="stroke:#181818;stroke-width:0.5;"/><text fill="#000000" font-family="sans-serif" font-size="14" lengthAdjust="spacing" textLength="58" x="137.3472" y="68.167">Running</text></g><g id="elem_DoDeliver"><ellipse cx="320.4096" cy="64.0799" fill="#F1F1F1" rx="62.4096" ry="14.8819" style="stroke:#181818;stroke-width:0.5;"/><text fill="#000000" font-family="sans-serif" font-size="14" lengthAdjust="spacing" textLength="71" x="281.9096" y="67.8275">DoDeliver</text></g><g id="elem_Move"><ellipse cx="311.4534" cy="154.2536" fill="#F1F1F1" rx="38.4534" ry="14.5556" style="stroke:#181818;stroke-width:0.5;"/><text fill="#000000" font-family="sans-serif" font-size="14" lengthAdjust="spacing" textLength="38" x="290.5903" y="157.7075">Move</text></g><g id="elem_Rotate"><ellipse cx="432.3761" cy="154.3624" fill="#F1F1F1" rx="47.3761" ry="14.6644" style="stroke:#181818;stroke-width:0.5;"/><text fill="#000000" font-family="sans-serif" font-size="14" lengthAdjust="spacing" textLength="50" x="404.3761" y="158.1099">Rotate</text></g><g id="elem_Waiting"><ellipse cx="469.6079" cy="64.3996" fill="#F1F1F1" rx="51.1079" ry="14.7016" style="stroke:#181818;stroke-width:0.5;"/><text fill="#000000" font-family="sans-serif" font-size="14" lengthAdjust="spacing" textLength="55" x="439.1079" y="68.1472">Waiting</text></g><g id="elem_Disabling"><ellipse cx="169.3197" cy="153.9651" fill="#F1F1F1" rx="59.3197" ry="14.7671" style="stroke:#181818;stroke-width:0.5;"/><text fill="#000000" font-family="sans-serif" font-size="14" lengthAdjust="spacing" textLength="66" x="133.3197" y="157.7127">Disabling</text></g><!--link Start to Running--><g id="link_Start_Running"><path d="M81.3984,64.198 C91.1672,64.198 100.9359,64.198 110.705,64.198 " fill="none" id="Start-to-Running" style="stroke:#181818;stroke-width:1.0;"/><polygon fill="#181818" points="115.813,64.198,106.813,60.198,110.813,64.198,106.813,68.198,115.813,64.198" style="stroke:#181818;stroke-width:1.0;"/></g><!--link Running to DoDeliver--><g id="link_Running_DoDeliver"><path d="M223.176,64.198 C232.996,64.198 242.816,64.198 252.636,64.198 " fill="none" id="Running-to-DoDeliver" style="stroke:#181818;stroke-width:1.0;"/><polygon fill="#181818" points="257.771,64.198,248.771,60.198,252.771,64.198,248.771,68.198,257.771,64.198" style="stroke:#181818;stroke-width:1.0;"/></g><!--link DoDeliver to Move--><g id="link_DoDeliver_Move"><path d="M329.284,79.3367 C331.774,94.5712 329.581,118.8486 324.422,135.3787 " fill="none" id="DoDeliver-to-Move" style="stroke:#181818;stroke-width:1.0;"/><polygon fill="#181818" points="322.728,140.2414,329.4659,133.0581,324.3728,135.5197,321.9112,130.4265,322.728,140.2414" style="stroke:#181818;stroke-width:1.0;"/></g><!--reverse link DoDeliver to Move--><g id="link_DoDeliver_Move"><path d="M307.817,84.306 C303.022,101.1252 300.995,125.1761 303.425,139.958 " fill="none" id="DoDeliver-backto-Move" style="stroke:#181818;stroke-width:1.0;"/><polygon fill="#181818" points="309.393,79.3367,302.8602,86.7071,307.882,84.1029,310.4861,89.1247,309.393,79.3367" style="stroke:#181818;stroke-width:1.0;"/></g><!--link DoDeliver to Rotate--><g id="link_DoDeliver_Rotate"><path d="M328.833,79.3367 C345.54,95.6871 379.591,122.4538 404.571,138.8799 " fill="none" id="DoDeliver-to-Rotate" style="stroke:#181818;stroke-width:1.0;"/><polygon fill="#181818" points="408.81,141.6229,403.4281,133.3746,404.6126,138.906,399.0811,140.0905,408.81,141.6229" style="stroke:#181818;stroke-width:1.0;"/></g><!--link Rotate to DoDeliver--><g id="link_Rotate_DoDeliver"><path d="M425.485,139.8095 C409.734,123.9506 376.356,97.5745 350.964,80.8042 " fill="none" id="Rotate-to-DoDeliver" style="stroke:#181818;stroke-width:1.0;"/><polygon fill="#181818" points="346.642,77.994,352.0066,86.2536,350.8338,80.7196,356.3677,79.5468,346.642,77.994" style="stroke:#181818;stroke-width:1.0;"/></g><!--link DoDeliver to Waiting--><g id="link_DoDeliver_Waiting"><path d="M383.068,64.198 C393.035,64.198 403.002,64.198 412.969,64.198 " fill="none" id="DoDeliver-to-Waiting" style="stroke:#181818;stroke-width:1.0;"/><polygon fill="#181818" points="418.181,64.198,409.181,60.198,413.181,64.198,409.181,68.198,418.181,64.198" style="stroke:#181818;stroke-width:1.0;"/></g><!--link Waiting to Running--><g id="link_Waiting_Running"><path d="M450.313,50.762 C433.463,39.835 407.83,25.27 383,19.198 C329.035,6 312.026,6.251 258,19.198 C235.017,24.705 211.267,37.222 194.163,47.659 " fill="none" id="Waiting-to-Running" style="stroke:#181818;stroke-width:1.0;"/><polygon fill="#181818" points="189.522,50.541,199.2782,49.1931,193.7702,47.9041,195.0592,42.3961,189.522,50.541" style="stroke:#181818;stroke-width:1.0;"/></g><!--link Running to Disabling--><g id="link_Running_Disabling"><path d="M169.5,78.948 C169.5,93.6275 169.5,117.0134 169.5,133.6142 " fill="none" id="Running-to-Disabling" style="stroke:#181818;stroke-width:1.0;"/><polygon fill="#181818" points="169.5,138.9615,173.5,129.9615,169.5,133.9615,165.5,129.9615,169.5,138.9615" style="stroke:#181818;stroke-width:1.0;"/></g><!--SRC=[qmWkIImgqTIrqmWgpSlBp4lNv8Ap57Jj53HSybrISpBBKek04WYsWcvAVdaUIDutlomLLSf65vieN4DGVabY2KWIoi1h2r0gF36p1E8k60iiZCMv23jSCeiJat90WW00]--></g><style xmlns="" type="text/css" id="igtranslator-color"/></svg>